<?xml version="1.0" encoding="UTF-8"?><svg xmlns="http://www.w3.org/2000/svg" viewBox="0 0 602.53 524.59"><defs><style>.cls-1{fill:#ef7668;}.cls-2{fill:#fff;}.cls-3{isolation:isolate;}.cls-4{fill:#feb200;}.cls-5{fill:#d1d3d4;}.cls-5,.cls-6{mix-blend-mode:multiply;}.cls-7{fill:none;stroke:#fff;stroke-linecap:round;stroke-linejoin:round;stroke-width:12px;}.cls-8{opacity:.1;}.cls-9{fill:#ef564b;}.cls-10{fill:#d17605;}.cls-6{fill:#6b58c0;opacity:.2;}.cls-11{fill:#441165;}</style></defs><g class="cls-3"><g id="Layer_2"><g id="Objects"><g><path class="cls-5" d="M461.83,513.31c0,6.23-74.46,11.28-166.32,11.28s-166.32-5.05-166.32-11.28,74.47-11.28,166.32-11.28,166.32,5.05,166.32,11.28Z"/><g><g><path class="cls-7" d="M556.49,262.02c-4.77,1.24-4.43,6.06-1.55,20.15,2.88,14.1-7.87,21.47-7.87,21.47,14.9-24.82-6.35-44.41-11.23-40.85-4.31,3.15-2.39,7.85,4.51,19.86,6.88,12.01-1.77,20.28-1.77,20.28,1.61-10.48-.24-21.6-9.45-24.45-6.54-2.01-8.58,2.52-8.74,5.76-2.51-9.58-30.12-13.86-23.02,13.15,3.81,14.47,10.78,21.38,17,24.68-.68,5.4-2.68,16.94-8.2,28.68-9.54,20.29-24.9,31.83-45.69,34.31-40.37,4.83-64.06-23.46-72.54-36.16l11.45-6.61c1.47-.85,2.46-2.33,2.71-4.01,.22-1.67-.33-3.38-1.52-4.59l-8.5-8.73c5.67-.11,11.86-.77,18.6-2.14,16.75-3.4,38.8-12.26,48.67-35.05,4.12-9.53,4.68-18.32,4.63-22.95,17.25-8.26,26.52-22.84,26.89-42.39,.22-11.47-2.73-21.49-4.25-25.87,1.82-3.09,3.23-6.9,4.02-11.56,4.23-25.43-8.93-41.87-9.49-42.55-.21-.25-.45-.48-.69-.67,.22-1,.41-2,.58-3.04,3.33-20.38-3.19-48.81-32.15-63.15-3.2-19.11-16.96-32.73-39.95-39.49-14.13-4.16-27.64-4.51-32.61-4.5-1.03-1-2.09-2.06-3.18-3.16-4.95-5-10.53-10.62-18.2-14.98-7.68-4.37-17.48-7.48-30.9-7.48-9.88,0-18.82,6.47-25.16,18.21-1.24,2.3-2.38,4.82-3.37,7.49-.99-2.67-2.12-5.19-3.37-7.49-6.35-11.75-15.29-18.21-25.16-18.21-13.43,0-23.23,3.11-30.9,7.48-7.68,4.35-13.25,9.98-18.2,14.98-1.09,1.1-2.14,2.16-3.18,3.16-4.97-.01-18.48,.34-32.61,4.5-22.99,6.76-36.74,20.38-39.95,39.49-28.96,14.34-35.48,42.77-32.15,63.15,.18,1.03,.36,2.04,.58,3.04-.24,.19-.48,.42-.69,.67-.55,.68-13.73,17.12-9.49,42.55,.78,4.66,2.2,8.47,4.01,11.56-1.52,4.38-4.47,14.4-4.25,25.87,.37,19.54,9.64,34.13,26.89,42.39-.06,4.63,.51,13.43,4.63,22.95,9.87,22.79,31.92,31.65,48.67,35.05,6.74,1.38,12.92,2.03,18.6,2.14l-8.51,8.73c-1.19,1.21-1.74,2.91-1.51,4.59,.23,1.68,1.22,3.17,2.69,4.01l11.46,6.61c-8.48,12.7-32.17,40.99-72.55,36.16-20.78-2.48-36.14-14.02-45.68-34.31-5.52-11.75-7.53-23.28-8.22-28.68,6.24-3.3,13.21-10.21,17.01-24.68,7.1-27.01-20.52-22.73-23.02-13.15-.18-3.24-2.2-7.78-8.74-5.76-9.22,2.85-11.05,13.97-9.46,24.45,0,0-8.64-8.27-1.76-20.28,6.89-12.01,8.82-16.72,4.51-19.86-4.88-3.56-26.13,16.02-11.24,40.85,0,0-10.74-7.37-7.86-21.47,2.88-14.09,3.21-18.91-1.55-20.15-7.41-1.94-28.39,53.86,24.66,62.3,.84,6.62,3.17,19.72,9.48,33.37,12.09,26.12,32.75,41.63,59.77,44.86,3.77,.45,7.51,.67,11.2,.67,22.18,0,42.78-8.08,60.13-23.72,8.79-7.92,14.94-16.17,18.59-21.78l10.59,6.12-9.22,56.99c-20.13,.18-42.61,1.81-47.46,8.01-9.17,11.71,107,20.93,107,20.93,0,0,5.09,23.39,10.7,23.39s0-33.63,0-33.63l-34.42-4.19h79.93l-34.42,4.19s-5.6,33.63,0,33.63,10.7-23.39,10.7-23.39c0,0,116.16-9.21,107-20.93-4.85-6.19-27.33-7.83-47.46-8.01l-9.22-56.99,10.59-6.12c3.65,5.61,9.8,13.86,18.59,21.78,17.33,15.64,37.94,23.72,60.12,23.72,3.7,0,7.42-.22,11.2-.67,27.03-3.23,47.7-18.74,59.79-44.86,6.3-13.65,8.65-26.75,9.48-33.37,53.04-8.45,32.06-64.24,24.66-62.3ZM62.04,295.95c3.05-7.69,6.77-3.42,8.42-9.69,.07,.52,.19,1.02,.41,1.55,0,0,.78,3.33,7.83,2.53,7.05-.8,2.08,17.78-2.88,18.91-4.97,1.12-18.77-.68-13.78-13.3Zm453.16,13.3c-4.96-1.12-9.93-19.71-2.88-18.91s7.83-2.53,7.83-2.53c.22-.53,.34-1.04,.41-1.55,1.65,6.27,5.38,2,8.42,9.69,4.99,12.62-8.81,14.42-13.78,13.3Z"/><g><g><g><path class="cls-1" d="M206.65,342.98c-.24,.48-24.59,48.26-76.13,42.1-20.77-2.48-36.14-14.03-45.68-34.32-5.52-11.74-7.52-23.29-8.21-28.69,6.23-3.29,13.2-10.21,17.01-24.68,7.11-27.01-20.52-22.72-23.02-13.15-.17-3.24-2.19-7.78-8.74-5.76-9.21,2.84-11.05,13.97-9.45,24.44,0,0-8.65-8.27-1.76-20.28,6.89-12.01,8.82-16.72,4.51-19.86-4.88-3.56-26.13,16.02-11.23,40.85,0,0-10.75-7.37-7.87-21.46,2.88-14.09,3.22-18.91-1.55-20.15-7.41-1.93-28.38,53.86,24.66,62.3,.83,6.62,3.17,19.72,9.48,33.37,12.08,26.12,32.75,41.63,59.78,44.87,3.77,.45,7.51,.67,11.2,.67,22.18,0,42.78-8.09,60.12-23.73,15.05-13.57,22.35-28.08,22.66-28.7l-15.76-7.83Zm-144.61-47.03c3.04-7.69,6.77-3.42,8.42-9.69,0,0,0,0,0,0,.06,.51,.19,1.04,.4,1.56,0,0,.78,3.33,7.83,2.53,7.05-.8,2.08,17.78-2.88,18.9-4.96,1.12-18.77-.68-13.77-13.29Z"/><g><polygon class="cls-10" points="239.19 300.34 230.31 351.93 203.25 336.32 238.33 300.34 239.19 300.34"/><path class="cls-11" d="M249.92,291.3c1.04,1.24,1.48,2.88,1.21,4.47l-11.32,65.8c-.31,1.77-1.46,3.28-3.09,4.05-.74,.34-1.54,.52-2.33,.52-.96,0-1.9-.24-2.75-.74l-40.02-23.1c-1.47-.85-2.46-2.33-2.69-4.01-.23-1.67,.32-3.38,1.51-4.59l41.64-42.71c1.03-1.06,2.46-1.66,3.94-1.66h9.71c1.62,0,3.16,.72,4.2,1.96Zm-19.61,60.63l8.88-51.59h-.86l-35.08,35.97,27.07,15.62Z"/></g></g><g><path class="cls-1" d="M368.59,350.81c.3,.61,7.61,15.13,22.66,28.7,17.34,15.64,37.94,23.73,60.12,23.73,3.69,0,7.43-.22,11.2-.67,27.03-3.23,47.7-18.74,59.78-44.87,6.31-13.64,8.65-26.74,9.48-33.37,53.04-8.44,32.07-64.24,24.66-62.3-4.77,1.24-4.44,6.06-1.55,20.15,2.88,14.1-7.87,21.46-7.87,21.46,14.9-24.83-6.35-44.41-11.23-40.85-4.31,3.14-2.38,7.85,4.51,19.86,6.89,12.01-1.76,20.28-1.76,20.28,1.6-10.47-.24-21.6-9.45-24.44-6.55-2.02-8.58,2.52-8.74,5.76-2.5-9.58-30.13-13.86-23.02,13.15,3.81,14.47,10.78,21.39,17.01,24.68-.68,5.4-2.69,16.95-8.21,28.69-9.54,20.29-24.91,31.84-45.68,34.32-51.53,6.16-75.89-41.62-76.13-42.1l-15.76,7.83Zm146.6-41.56c-4.96-1.12-9.93-19.7-2.88-18.9,7.05,.8,7.83-2.53,7.83-2.53,.22-.53,.34-1.05,.4-1.56h0c1.65,6.28,5.38,2.01,8.42,9.7,4.99,12.62-8.81,14.42-13.78,13.29Z"/><g><polygon class="cls-10" points="351.82 300.34 360.7 351.93 387.76 336.32 352.68 300.34 351.82 300.34"/><path class="cls-11" d="M345.29,289.34h9.71c1.47,0,2.9,.61,3.94,1.66l41.64,42.71c1.19,1.21,1.74,2.91,1.51,4.59-.23,1.68-1.22,3.17-2.7,4.01l-40.02,23.1c-.85,.49-1.79,.74-2.75,.74-.79,0-1.59-.18-2.33-.52-1.63-.77-2.78-2.28-3.09-4.05l-11.32-65.8c-.28-1.59,.17-3.23,1.21-4.47,1.04-1.24,2.58-1.96,4.2-1.96Zm42.47,46.97l-35.08-35.97h-.86l8.87,51.59,27.07-15.62Z"/></g></g></g><g><g><path class="cls-11" d="M418.75,428.84c-4.85-6.19-27.32-7.83-47.45-8l-22.23-137.43c-.43-2.66-2.73-4.62-5.43-4.62h-96.25c-2.7,0-5,1.96-5.43,4.62l-22.23,137.43c-20.13,.17-42.61,1.81-47.45,8-9.17,11.72,107,20.93,107,20.93,0,0,5.09,23.4,10.7,23.4s0-33.63,0-33.63l-34.42-4.2h79.94l-34.42,4.2s-5.61,33.63,0,33.63,10.7-23.4,10.7-23.4c0,0,116.17-9.21,107-20.93Zm-166.69-139.05h86.89l18.6,114.96h-124.09l18.6-114.96Z"/><polygon class="cls-4" points="357.55 404.75 233.47 404.75 247.44 318.32 252.06 289.78 338.95 289.78 343.75 319.5 357.55 404.75"/><path class="cls-10" d="M343.75,319.5c-45.71,29.61-91.65,1.79-96.31-1.18l4.62-28.54h86.89l4.81,29.72Z"/></g><g><path class="cls-1" d="M335.7,296.25c-9.81,9.06-24.19,14.77-40.19,14.77s-30.39-5.71-40.19-14.77c.11-.2,.21-.4,.3-.6,.2-.37,.38-.75,.55-1.13,.36-.73,.68-1.47,.97-2.22,.16-.41,.31-.8,.47-1.21,.14-.39,.28-.77,.41-1.15,.14-.38,.25-.77,.36-1.15,.13-.39,.23-.78,.33-1.16,.22-.78,.4-1.55,.55-2.33,.07-.34,.14-.68,.19-1.01,.21-1.21,.36-2.43,.44-3.63,.06-.77,.09-1.54,.09-2.3,2.84,1.12,6.09,1.87,9.71,1.87,4.96,0,10.61-1.4,16.84-5.14,4.19-2.53,7.19-5.86,8.99-9.94,1.8,4.08,4.8,7.41,8.99,9.94,6.23,3.74,11.87,5.14,16.84,5.14,3.62,0,6.87-.75,9.71-1.87,0,.77,.03,1.54,.09,2.3,.08,1.21,.24,2.43,.44,3.63,.05,.33,.12,.67,.19,1.01,.15,.78,.33,1.55,.55,2.33,.1,.39,.21,.78,.33,1.16,.57,1.93,1.31,3.85,2.21,5.74,.26,.58,.55,1.15,.85,1.72Z"/><g><g><path class="cls-1" d="M242.27,299.38c-5.99,6.86-23.85,22.01-60.11,14.62-50.16-10.21-46.16-49.8-45.97-51.47,.25-2.01-.88-3.93-2.74-4.71-29.18-12.17-25.51-40.45-22.03-53.42,5.6,4.1,11.99,5.34,16.19,5.67,1.22,9.19,6.17,31.03,26.14,46.87,21.54,17.09,53.45,21.68,94.85,13.67,.43,.46,.95,.96,1.52,1.49,2.44,8.38-.56,18.96-7.83,27.28Z"/><path class="cls-1" d="M277.42,225.41c.2-1.19,.87-2.25,1.85-2.94,.52-.38,11.8-8.9,7.22-28.82-9.5,13.26-22.01,15.84-22.59,15.96-.3,.05-2.91,.53-6.78,.53-6.87,0-17.67-1.49-26.44-9.46-9.65-8.78-14.14-22.87-13.36-41.96-18,2.87-46.01,.88-53.09-23.56-.69-2.39,.69-4.89,3.08-5.58,2.39-.69,4.89,.69,5.58,3.08,7.49,25.88,47.82,16.19,48.22,16.09,1.43-.35,2.92,0,4.03,.96,1.11,.96,1.69,2.38,1.55,3.83-1.77,19.18,1.61,32.79,10.05,40.46,10.41,9.45,25.31,6.77,25.45,6.74,.44-.09,12-2.64,19.5-16.39,12.95-23.75,3.51-61.51-7.13-89.82-10.99-.68-21.15-10.63-26.26-16.56-4.9,6.17-12.58,11.96-24.59,15.26-.41,.11-.8,.16-1.2,.16-1.98,0-3.8-1.32-4.35-3.32-.66-2.41,.76-4.89,3.16-5.55,31.1-8.53,26.7-36.05,26.5-37.23-.42-2.45,1.22-4.79,3.67-5.22,2.46-.42,4.79,1.22,5.21,3.67,.06,.38,1.57,9.37-1.75,19.69-.45,1.41-1,2.88-1.69,4.38,4.26,5.39,14.16,15.74,22.47,15.74h.24c3.46-.09,6.46-2.14,9.17-6.27,7.14-10.89,8.73-32.87-.95-50.79-1.36-2.52-3.51-5.88-6.4-8.62-2.89-2.74-6.51-4.85-10.84-4.85-23.1,0-33.52,10.51-42.7,19.78-1.62,1.64-3.15,3.18-4.73,4.66-.88,.83-2.06,1.26-3.28,1.21-.15,0-15.85-.58-31.85,4.17-20.28,6.02-31.6,17.48-33.65,34.08,.07,2.72,1.15,23.54,18.81,23.54h.08c2.49,0,4.51,2.01,4.51,4.49,0,2.49-2,4.52-4.49,4.53h-.11c-7.33,0-13.45-2.39-18.19-7.12-5.57-5.55-7.91-13.16-8.91-18.67-21.41,12.57-26.39,34.44-23.57,51.62,2.28,13.96,9.78,24.67,17.82,25.47,2.47,.24,4.28,2.45,4.03,4.93-.23,2.33-2.19,4.06-4.48,4.06-.14,0-.3,0-.45-.02-9.01-.9-16.94-8.14-21.78-19.1-3.05,5.7-7.14,16.54-4.75,30.89,3.13,18.81,20.06,17.78,21.98,17.6,.08,0,.17,0,.25,0,.14,0,.28-.03,.42-.02,18.3,.92,25.2-6.45,25.49-6.77,1.61-1.89,4.44-2.1,6.33-.49,1.9,1.61,2.11,4.49,.5,6.39-.36,.42-8.26,9.42-27.49,9.94,1.37,8.49,6.17,26.72,22.68,39.75,19.8,15.64,50.05,19.45,89.91,11.32,1.74-.35,3.54,.35,4.57,1.8,.28,.38,1.16,1.52,2.58,2.81,.36,.23,.7,.52,.99,.86,4.45,3.62,12.83,7.55,24.36,.61,3.44-2.07,5.48-4.86,6.23-8.53,2.13-10.33-6.42-25.17-9.9-30.03-.69-.97-.98-2.19-.78-3.38Zm-56.2,25.02h-.1c-5.04-.11-9.51-2-13.24-5.55-2.81,.47-5.47,.71-7.96,.71-7.5,0-13.51-2.14-17.94-6.41-10.08-9.71-7.37-26.47-7.25-27.18,.42-2.45,2.74-4.11,5.2-3.69,2.45,.41,4.11,2.74,3.7,5.2-.03,.17-2.01,12.84,4.63,19.2,3.03,2.9,7.61,4.18,13.65,3.81-2.77-5.62-3.68-10.97-3.72-11.21-.41-2.45,1.26-4.77,3.72-5.18,2.46-.41,4.77,1.25,5.18,3.71,.04,.22,3.09,17.33,14.21,17.56,2.5,.06,4.47,2.12,4.41,4.61-.05,2.46-2.06,4.41-4.5,4.41Z"/></g><g><path class="cls-1" d="M457.57,257.82c-1.87,.78-3,2.7-2.74,4.71,.19,1.67,4.2,41.26-45.97,51.47-36.26,7.39-54.12-7.76-60.11-14.62-7.27-8.32-10.28-18.9-7.83-27.28,.57-.53,1.08-1.03,1.52-1.49,41.4,8.01,73.31,3.42,94.85-13.67,19.97-15.84,24.92-37.68,26.14-46.87,4.2-.33,10.58-1.57,16.19-5.67,3.48,12.97,7.15,41.25-22.03,53.42Z"/><path class="cls-1" d="M476.98,152.65c-4.83,10.96-12.76,18.2-21.78,19.1-.15,0-.31,.02-.45,.02-2.29,0-4.26-1.73-4.49-4.06-.25-2.48,1.56-4.69,4.03-4.93,8.04-.8,15.54-11.51,17.82-25.47,2.81-17.18-2.17-39.05-23.57-51.62-1,5.5-3.35,13.12-8.91,18.67-4.74,4.73-10.85,7.12-18.19,7.12h-.11c-2.49,0-4.5-2.04-4.49-4.53,0-2.48,2.02-4.49,4.51-4.49h.08c17.66,0,18.74-20.81,18.81-23.54-2.05-16.59-13.37-28.06-33.65-34.08-16-4.75-31.69-4.17-31.85-4.17-1.22,.05-2.39-.38-3.27-1.21-1.58-1.47-3.1-3.01-4.73-4.66-9.19-9.27-19.61-19.78-42.7-19.78-4.32,0-7.95,2.11-10.83,4.85-2.89,2.74-5.03,6.11-6.4,8.62-9.68,17.92-8.08,39.9-.95,50.79,2.71,4.13,5.7,6.18,9.17,6.27h.24c8.32,0,18.21-10.35,22.47-15.74-.69-1.5-1.24-2.97-1.69-4.38-3.32-10.31-1.81-19.31-1.75-19.69,.42-2.45,2.75-4.09,5.21-3.67,2.45,.42,4.1,2.76,3.67,5.22-.2,1.17-4.6,28.7,26.5,37.23,2.4,.66,3.82,3.14,3.16,5.55-.55,2-2.37,3.32-4.35,3.32-.4,0-.8-.05-1.2-.16-12.01-3.29-19.69-9.09-24.59-15.26-5.11,5.93-15.28,15.88-26.26,16.56-10.64,28.31-20.07,66.07-7.13,89.82,7.5,13.75,19.06,16.3,19.5,16.39,.15,.03,15.04,2.71,25.45-6.74,8.44-7.67,11.82-21.28,10.05-40.46-.14-1.45,.44-2.88,1.55-3.83,1.11-.95,2.61-1.31,4.03-.96,.41,.1,40.74,9.78,48.22-16.09,.69-2.39,3.19-3.77,5.58-3.08,2.39,.69,3.77,3.19,3.08,5.58-7.07,24.44-35.09,26.43-53.09,23.56,.78,19.09-3.71,33.18-13.36,41.96-8.77,7.97-19.58,9.46-26.44,9.46-3.87,0-6.49-.48-6.78-.53-.58-.12-13.09-2.7-22.59-15.96-4.58,19.91,6.69,28.44,7.22,28.82,.98,.7,1.65,1.75,1.85,2.94,.21,1.19-.08,2.41-.78,3.38-3.47,4.85-12.03,19.7-9.9,30.03,.76,3.66,2.8,6.46,6.24,8.53,11.53,6.95,19.91,3.01,24.36-.61,.29-.34,.63-.62,.99-.86,1.42-1.3,2.3-2.44,2.58-2.81,1.04-1.45,2.83-2.16,4.57-1.8,39.86,8.14,70.11,4.33,89.91-11.32,16.51-13.03,21.31-31.26,22.68-39.75-19.24-.52-27.13-9.53-27.49-9.94-1.62-1.9-1.41-4.77,.5-6.39,1.89-1.61,4.72-1.41,6.33,.49,.29,.32,7.19,7.69,25.49,6.77,.14,0,.27,.02,.41,.02,.08,0,.17,0,.25,0,1.91,.18,18.85,1.21,21.98-17.6,2.39-14.35-1.7-25.19-4.75-30.89Zm-67.96,86.54c-4.43,4.27-10.44,6.41-17.94,6.41-2.49,0-5.15-.24-7.96-.71-3.73,3.55-8.19,5.44-13.24,5.55h-.1c-2.44,0-4.46-1.95-4.5-4.41-.05-2.49,1.91-4.55,4.41-4.61,11.12-.23,14.16-17.34,14.21-17.56,.41-2.46,2.72-4.12,5.18-3.71,2.46,.41,4.12,2.72,3.72,5.18-.04,.23-.95,5.58-3.72,11.21,6.04,.37,10.62-.9,13.65-3.81,6.64-6.36,4.66-19.03,4.63-19.2-.41-2.45,1.25-4.78,3.7-5.2,2.45-.42,4.78,1.24,5.2,3.69,.13,.71,2.83,17.47-7.24,27.18Z"/></g><g><path class="cls-9" d="M221.32,241.41c2.5,.06,4.47,2.12,4.41,4.61-.04,2.46-2.06,4.41-4.5,4.41h-.1c-5.04-.11-9.51-2-13.24-5.55-2.81,.47-5.47,.71-7.96,.71-7.5,0-13.51-2.14-17.94-6.41-10.08-9.71-7.37-26.47-7.25-27.18,.42-2.45,2.74-4.11,5.2-3.69,2.45,.41,4.1,2.74,3.7,5.2-.03,.17-2.01,12.84,4.63,19.2,3.03,2.9,7.61,4.18,13.65,3.81-2.77-5.62-3.68-10.97-3.72-11.21-.41-2.45,1.26-4.77,3.72-5.18,2.46-.41,4.77,1.25,5.18,3.71,.04,.22,3.09,17.33,14.21,17.56Z"/><path class="cls-9" d="M369.7,241.41c-2.5,.06-4.46,2.12-4.41,4.61,.04,2.46,2.06,4.41,4.5,4.41h.1c5.04-.11,9.51-2,13.24-5.55,2.81,.47,5.47,.71,7.96,.71,7.5,0,13.51-2.14,17.94-6.41,10.08-9.71,7.37-26.47,7.24-27.18-.42-2.45-2.74-4.11-5.2-3.69-2.45,.41-4.1,2.74-3.7,5.2,.03,.17,2.01,12.84-4.63,19.2-3.03,2.9-7.62,4.18-13.65,3.81,2.77-5.62,3.68-10.97,3.72-11.21,.41-2.45-1.26-4.77-3.72-5.18-2.46-.41-4.77,1.25-5.18,3.71-.04,.22-3.08,17.33-14.21,17.56Z"/><path class="cls-9" d="M490.62,185.02c4.24-25.43-8.93-41.87-9.49-42.56-.21-.25-.44-.48-.69-.67,.22-1,.41-2,.58-3.03,3.34-20.38-3.19-48.81-32.15-63.16-3.2-19.11-16.96-32.73-39.94-39.49-14.14-4.16-27.64-4.51-32.62-4.5-1.03-1-2.08-2.06-3.18-3.16-4.95-5.01-10.52-10.62-18.2-14.98-7.68-4.37-17.48-7.48-30.91-7.48-9.88,0-18.82,6.47-25.16,18.22-1.25,2.3-2.37,4.82-3.37,7.49-.99-2.67-2.12-5.19-3.37-7.49-6.34-11.75-15.28-18.22-25.16-18.22-13.43,0-23.23,3.11-30.91,7.48-7.68,4.36-13.24,9.97-18.2,14.98-1.09,1.1-2.15,2.16-3.18,3.16-4.97,0-18.48,.34-32.62,4.5-22.98,6.76-36.74,20.38-39.94,39.49-28.96,14.34-35.48,42.77-32.15,63.16,.17,1.03,.36,2.03,.58,3.03-.24,.19-.48,.42-.69,.67-.56,.69-13.73,17.12-9.49,42.56,.78,4.66,2.19,8.46,4.01,11.56-1.52,4.38-4.46,14.4-4.24,25.87,.37,19.54,9.64,34.13,26.89,42.39-.05,4.64,.51,13.43,4.64,22.95,9.86,22.79,31.91,31.65,48.67,35.06,7.45,1.52,14.24,2.17,20.39,2.17,27.63,0,42.58-13.11,48.32-19.69,.23-.26,.45-.52,.68-.79,11.55,10.11,27.8,16.42,45.77,16.42s34.22-6.31,45.77-16.42c-.07-.08-.14-.17-.2-.25,.29,.35,.58,.7,.88,1.04,5.75,6.58,20.7,19.69,48.32,19.69,6.15,0,12.94-.65,20.39-2.17,16.75-3.41,38.8-12.27,48.67-35.06,4.12-9.52,4.69-18.32,4.64-22.95,17.24-8.26,26.52-22.84,26.89-42.39,.22-11.47-2.72-21.49-4.24-25.87,1.81-3.09,3.23-6.89,4-11.56Zm-195.11,80.13c1.8,4.08,4.8,7.41,8.99,9.94,6.23,3.74,11.87,5.14,16.84,5.14,3.62,0,6.87-.75,9.71-1.87,0,.77,.03,1.54,.09,2.3,.08,1.21,.24,2.43,.44,3.63,.06,.34,.13,.68,.19,1.01,.16,.78,.34,1.55,.55,2.33,.11,.39,.22,.78,.33,1.16,.59,1.92,1.32,3.84,2.21,5.74,.36,.75,.74,1.5,1.15,2.25-.05-.08-.1-.17-.15-.26-.04-.09-.1-.18-.15-.26-9.81,9.06-24.19,14.77-40.19,14.77s-30.39-5.71-40.19-14.77c-.09,.17-.2,.34-.29,.52,.2-.37,.4-.75,.59-1.12,.19-.38,.38-.76,.55-1.13,.35-.74,.68-1.48,.97-2.22,.16-.41,.31-.8,.47-1.21,.14-.39,.27-.78,.41-1.15,.13-.39,.24-.78,.36-1.15,.12-.39,.23-.78,.33-1.16,.21-.78,.39-1.55,.55-2.33,.06-.33,.13-.67,.19-1.01,.21-1.21,.36-2.43,.44-3.63,.06-.77,.09-1.54,.09-2.3,2.84,1.12,6.09,1.87,9.71,1.87,4.96,0,10.61-1.4,16.84-5.14,4.19-2.53,7.19-5.86,8.99-9.94ZM114.03,152.65c4.84,10.96,12.77,18.2,21.78,19.1,.15,0,.31,.02,.45,.02,2.29,0,4.26-1.73,4.48-4.06,.25-2.48-1.56-4.69-4.03-4.93-8.04-.8-15.54-11.51-17.82-25.47-2.81-17.18,2.16-39.05,23.57-51.62,1,5.5,3.35,13.12,8.91,18.67,4.74,4.73,10.85,7.12,18.19,7.12h.11c2.49,0,4.5-2.04,4.49-4.53,0-2.48-2.02-4.49-4.51-4.49h-.08c-17.66,0-18.74-20.81-18.81-23.54,2.05-16.59,13.37-28.06,33.65-34.08,16-4.75,31.69-4.17,31.85-4.17,1.22,.05,2.39-.38,3.28-1.21,1.58-1.47,3.1-3.01,4.73-4.66,9.19-9.27,19.61-19.78,42.7-19.78,4.32,0,7.95,2.11,10.84,4.85,2.89,2.74,5.03,6.11,6.4,8.62,9.68,17.92,8.08,39.9,.95,50.79-2.71,4.13-5.7,6.18-9.17,6.27h-.24c-8.32,0-18.22-10.35-22.47-15.74,.69-1.5,1.24-2.97,1.69-4.38,3.32-10.31,1.81-19.31,1.75-19.69-.42-2.45-2.75-4.09-5.21-3.67-2.45,.42-4.1,2.76-3.67,5.22,.2,1.17,4.6,28.7-26.5,37.23-2.4,.66-3.82,3.14-3.16,5.55,.55,2,2.37,3.32,4.35,3.32,.4,0,.79-.05,1.2-.16,12.01-3.29,19.69-9.09,24.59-15.26,5.12,5.93,15.27,15.88,26.26,16.56,10.64,28.31,20.07,66.07,7.13,89.82-7.5,13.75-19.06,16.3-19.5,16.39-.14,.03-15.04,2.71-25.45-6.74-8.44-7.67-11.82-21.28-10.05-40.46,.14-1.45-.44-2.88-1.55-3.83-1.11-.95-2.61-1.31-4.03-.96-.41,.1-40.73,9.78-48.22-16.09-.69-2.39-3.19-3.77-5.58-3.08-2.39,.69-3.77,3.19-3.08,5.58,7.07,24.44,35.09,26.43,53.09,23.56-.78,19.09,3.71,33.18,13.36,41.96,8.77,7.97,19.58,9.46,26.44,9.46,3.87,0,6.49-.48,6.78-.53,.58-.12,13.09-2.7,22.59-15.96,4.58,19.91-6.69,28.44-7.22,28.82-.98,.7-1.65,1.75-1.85,2.94-.21,1.19,.08,2.41,.78,3.38,3.47,4.85,12.03,19.7,9.9,30.03-.76,3.66-2.8,6.46-6.23,8.53-11.53,6.95-19.91,3.01-24.36-.61-.29-.34-.63-.62-.99-.86-1.43-1.3-2.3-2.44-2.58-2.81-1.04-1.45-2.83-2.16-4.57-1.8-39.86,8.14-70.11,4.33-89.91-11.32-16.51-13.03-21.31-31.26-22.68-39.75,19.24-.52,27.13-9.53,27.49-9.94,1.62-1.9,1.41-4.77-.5-6.39-1.9-1.61-4.72-1.41-6.33,.49-.29,.32-7.19,7.69-25.49,6.77-.14,0-.27,.02-.42,.02-.08,0-.17,0-.25,0-1.91,.18-18.85,1.21-21.98-17.6-2.39-14.35,1.7-25.19,4.75-30.89Zm128.23,146.74c-5.99,6.86-23.85,22.01-60.11,14.62-50.16-10.21-46.16-49.8-45.97-51.47,.25-2.01-.88-3.93-2.74-4.71-29.18-12.17-25.51-40.45-22.03-53.42,5.6,4.1,11.99,5.34,16.19,5.67,1.22,9.19,6.17,31.03,26.14,46.87,21.54,17.09,53.45,21.68,94.85,13.67,.43,.46,.95,.96,1.52,1.49,2.44,8.38-.56,18.96-7.83,27.28Zm215.31-41.56c-1.87,.78-3,2.7-2.74,4.71,.19,1.67,4.2,41.26-45.97,51.47-36.26,7.39-54.12-7.76-60.11-14.62-7.27-8.32-10.28-18.9-7.83-27.28,.57-.53,1.08-1.03,1.52-1.49,41.4,8.01,73.31,3.42,94.85-13.67,19.97-15.84,24.92-37.68,26.14-46.87,4.2-.33,10.58-1.57,16.19-5.67,3.48,12.97,7.15,41.25-22.03,53.42Zm24.15-74.28c-3.13,18.81-20.07,17.78-21.98,17.6-.08,0-.17,0-.25,0-.14,0-.28-.03-.41-.02-18.3,.92-25.2-6.45-25.49-6.77-1.62-1.89-4.44-2.1-6.33-.49-1.9,1.61-2.11,4.49-.5,6.39,.36,.42,8.25,9.42,27.49,9.94-1.37,8.49-6.17,26.72-22.68,39.75-19.8,15.64-50.06,19.45-89.91,11.32-1.74-.35-3.54,.35-4.57,1.8-.28,.38-1.16,1.52-2.58,2.81-.36,.23-.7,.52-.99,.86-4.45,3.62-12.83,7.55-24.36,.61-3.44-2.07-5.48-4.86-6.24-8.53-2.13-10.33,6.42-25.17,9.9-30.03,.7-.97,.98-2.19,.78-3.38-.2-1.19-.87-2.25-1.85-2.94-.52-.38-11.8-8.9-7.22-28.82,9.5,13.26,22.01,15.84,22.59,15.96,.3,.05,2.91,.53,6.78,.53,6.87,0,17.67-1.49,26.44-9.46,9.65-8.78,14.14-22.87,13.36-41.96,18,2.87,46.01,.88,53.09-23.56,.7-2.39-.69-4.89-3.08-5.58-2.39-.69-4.89,.69-5.58,3.08-7.49,25.88-47.82,16.19-48.22,16.09-1.43-.35-2.92,0-4.03,.96-1.11,.96-1.69,2.38-1.55,3.83,1.77,19.18-1.61,32.79-10.05,40.46-10.41,9.45-25.31,6.77-25.45,6.74-.44-.09-12-2.64-19.5-16.39-12.95-23.75-3.51-61.51,7.13-89.82,10.99-.68,21.15-10.63,26.26-16.56,4.9,6.17,12.58,11.96,24.59,15.26,.4,.11,.8,.16,1.2,.16,1.98,0,3.8-1.32,4.35-3.32,.66-2.41-.76-4.89-3.16-5.55-31.1-8.53-26.7-36.05-26.5-37.23,.43-2.45-1.22-4.79-3.67-5.22-2.46-.42-4.79,1.22-5.21,3.67-.06,.38-1.57,9.37,1.75,19.69,.45,1.41,1,2.88,1.69,4.38-4.26,5.39-14.16,15.74-22.47,15.74h-.24c-3.46-.09-6.46-2.14-9.17-6.27-7.14-10.89-8.73-32.87,.95-50.79,1.36-2.52,3.51-5.88,6.4-8.62,2.89-2.74,6.51-4.85,10.83-4.85,23.1,0,33.52,10.51,42.7,19.78,1.62,1.64,3.15,3.18,4.73,4.66,.88,.83,2.06,1.26,3.27,1.21,.15,0,15.85-.58,31.85,4.17,20.28,6.02,31.6,17.48,33.65,34.08-.07,2.72-1.15,23.54-18.81,23.54h-.08c-2.49,0-4.51,2.01-4.51,4.49,0,2.49,2,4.52,4.49,4.53h.11c7.34,0,13.45-2.39,18.19-7.12,5.57-5.55,7.91-13.16,8.91-18.67,21.41,12.57,26.39,34.44,23.57,51.62-2.28,13.96-9.78,24.67-17.82,25.47-2.47,.24-4.29,2.45-4.03,4.93,.23,2.33,2.19,4.06,4.49,4.06,.14,0,.3,0,.45-.02,9.01-.9,16.94-8.14,21.78-19.1,3.05,5.7,7.14,16.54,4.75,30.89Z"/></g></g></g></g><g><path class="cls-11" d="M339.18,269c0,6.16-2.9,11.89-7.83,16.57-4.5,4.3-10.7,7.76-17.96,9.92-5.45,1.63-11.51,2.55-17.89,2.55s-12.44-.91-17.91-2.55c-7.26-2.17-13.46-5.62-17.96-9.92-4.92-4.7-7.82-10.42-7.82-16.57,0-11.7,10.39-6.35,25.36-2.58,5.58,1.39,11.79,2.58,18.33,2.58s12.74-1.19,18.31-2.58c14.97-3.77,25.37-9.12,25.37,2.58Z"/><path class="cls-9" d="M313.4,293.29c-5.45,1.64-11.51,2.55-17.89,2.55s-12.44-.91-17.91-2.55c1.24-8.77,8.78-15.52,17.9-15.52s16.66,6.75,17.9,15.52Z"/></g><g><path class="cls-11" d="M268.31,221.43s.05,.37,.15,1.07c.04,.35,.1,.78,.16,1.28,.03,.26,.07,.52,.09,.82,0,.33,0,.68-.01,1.04-.01,.74-.02,1.58-.07,2.48-.09,.86-.24,1.79-.38,2.8-.16,1-.47,2.03-.73,3.15-.29,1.11-.78,2.21-1.21,3.41-.53,1.15-1.11,2.34-1.8,3.54-.75,1.15-1.47,2.4-2.43,3.52-1.78,2.36-4.11,4.5-6.73,6.42-.68,.45-1.36,.92-2.06,1.36-.7,.44-1.46,.79-2.21,1.19l-1.13,.58-1.18,.48c-.8,.3-1.59,.64-2.42,.9-1.66,.46-3.33,.98-5.07,1.18-.86,.14-1.73,.29-2.61,.31l-1.31,.07-.66,.04-.33,.02h-.16s-.08,.01-.08,.01h-.04c-.14,0,.26,.01-.33,0l-2.21-.13-.55-.03c-.18,0-.36-.02-.62-.06l-1.4-.2c-.91-.16-1.92-.25-2.73-.51-.84-.23-1.67-.46-2.51-.69-.82-.26-1.62-.6-2.41-.9l-1.18-.48-1.13-.58c-.74-.4-1.51-.75-2.21-1.19-.7-.45-1.38-.91-2.06-1.36-2.62-1.92-4.95-4.06-6.73-6.42-.95-1.12-1.68-2.37-2.43-3.52-.68-1.19-1.27-2.39-1.8-3.54-.43-1.2-.92-2.3-1.21-3.41-.27-1.12-.57-2.16-.73-3.15-.14-1.01-.29-1.93-.38-2.8-.04-.87-.04-1.67-.05-2.38,0-.36,0-.69-.01-1.01,.02-.32,.06-.61,.08-.89,.06-.55,.11-1.01,.15-1.39,.1-.75,.15-1.14,.15-1.14,.16-1.21,1.26-2.06,2.47-1.91,.92,.12,1.63,.79,1.85,1.63l.07,.28s.09,.34,.25,.98c.18,.63,.32,1.56,.72,2.68,.18,.56,.39,1.17,.61,1.84,.3,.65,.57,1.35,.88,2.08,.32,.73,.77,1.46,1.17,2.25,.43,.77,.97,1.53,1.46,2.34,.58,.76,1.15,1.57,1.82,2.34,.72,.73,1.34,1.57,2.17,2.25,1.51,1.52,3.37,2.78,5.31,3.96,1.97,1.16,4.17,1.99,6.41,2.67,.57,.13,1.15,.26,1.73,.39,.3,.08,.57,.12,.82,.14l.78,.11,.78,.13c.11,.03,.29,.04,.48,.04l.55,.02,2.21,.1c-.57-.01-.14,0-.26,0h.08s.11,0,.11,0h.22s.45-.03,.45-.03l.9-.04c.6,0,1.19-.1,1.78-.19,.58-.11,1.19-.11,1.76-.28,.58-.13,1.15-.26,1.73-.39,2.25-.68,4.45-1.51,6.41-2.67,1.94-1.18,3.8-2.44,5.31-3.96,.83-.68,1.46-1.52,2.17-2.25,.66-.77,1.23-1.58,1.82-2.34,.49-.81,1.04-1.57,1.46-2.34,.4-.78,.85-1.51,1.17-2.25,.31-.74,.57-1.44,.87-2.08,.22-.63,.42-1.22,.6-1.74,.09-.27,.18-.53,.26-.77,.07-.27,.13-.55,.19-.79,.11-.5,.21-.92,.29-1.26,.17-.69,.26-1.05,.26-1.05,.29-1.2,1.51-1.94,2.71-1.64,.92,.22,1.56,.99,1.69,1.87Z"/><path class="cls-11" d="M387.4,221.43s.05,.37,.15,1.07c.04,.35,.09,.78,.16,1.28,.03,.26,.07,.52,.09,.82,0,.33,0,.68-.01,1.04-.02,.74-.02,1.58-.07,2.48-.09,.86-.24,1.79-.38,2.8-.17,1-.47,2.03-.74,3.15-.29,1.11-.78,2.21-1.21,3.41-.53,1.15-1.11,2.34-1.8,3.54-.74,1.15-1.47,2.4-2.43,3.52-1.78,2.36-4.11,4.5-6.73,6.42-.68,.45-1.36,.92-2.06,1.36-.7,.44-1.46,.79-2.21,1.19l-1.13,.58-1.18,.48c-.8,.3-1.59,.64-2.41,.9-1.66,.46-3.33,.98-5.08,1.18-.86,.14-1.73,.29-2.61,.31l-1.31,.07-.66,.04-.33,.02h-.16s-.08,.01-.08,.01h-.04c-.14,0,.26,.01-.33,0l-2.21-.13-.55-.03c-.18,0-.36-.02-.62-.06l-1.4-.2c-.91-.16-1.92-.25-2.73-.51-.84-.23-1.67-.46-2.51-.69-.82-.26-1.62-.6-2.42-.9l-1.18-.48-1.13-.58c-.74-.4-1.5-.75-2.21-1.19-.7-.45-1.38-.91-2.06-1.36-2.62-1.92-4.95-4.06-6.73-6.42-.95-1.12-1.68-2.37-2.43-3.52-.68-1.19-1.27-2.39-1.8-3.54-.43-1.2-.92-2.3-1.21-3.41-.27-1.12-.57-2.16-.73-3.15-.14-1.01-.29-1.93-.38-2.8-.04-.87-.04-1.67-.05-2.38,0-.36,0-.69-.01-1.01,.02-.32,.06-.61,.09-.89,.06-.55,.11-1.01,.15-1.39,.1-.75,.15-1.14,.15-1.14,.16-1.21,1.26-2.06,2.47-1.91,.92,.12,1.63,.79,1.85,1.63l.07,.28s.09,.34,.25,.98c.18,.63,.32,1.56,.72,2.68,.18,.56,.39,1.17,.61,1.84,.3,.65,.57,1.35,.88,2.08,.32,.73,.77,1.46,1.16,2.25,.43,.77,.97,1.53,1.46,2.34,.58,.76,1.16,1.57,1.82,2.34,.71,.73,1.34,1.57,2.17,2.25,1.51,1.52,3.37,2.78,5.31,3.96,1.97,1.16,4.17,1.99,6.41,2.67,.57,.13,1.15,.26,1.73,.39,.3,.08,.57,.12,.82,.14l.78,.11,.78,.13c.11,.03,.29,.04,.48,.04l.55,.02,2.21,.1c-.57-.01-.14,0-.26,0h.08s.11,0,.11,0h.22s.45-.03,.45-.03l.9-.04c.6,0,1.19-.1,1.78-.19,.58-.11,1.19-.11,1.76-.28,.58-.13,1.16-.26,1.73-.39,2.25-.68,4.45-1.51,6.42-2.67,1.94-1.18,3.8-2.44,5.31-3.96,.84-.68,1.46-1.52,2.17-2.25,.66-.77,1.23-1.58,1.82-2.34,.5-.81,1.04-1.57,1.46-2.34,.4-.78,.85-1.51,1.16-2.25,.31-.74,.58-1.44,.87-2.08,.22-.63,.42-1.22,.6-1.74,.09-.27,.18-.53,.27-.77,.07-.27,.13-.55,.18-.79,.11-.5,.21-.92,.29-1.26,.17-.69,.26-1.05,.26-1.05,.29-1.2,1.5-1.94,2.71-1.64,.92,.22,1.56,.99,1.69,1.87Z"/></g></g><g><path class="cls-11" d="M214.83,142.57c-.36,0-.72-.04-1.08-.12-2.67-.59-4.35-3.24-3.75-5.91,.09-.39,9.11-38.76,51.33-43.08,2.73-.28,5.15,1.7,5.43,4.42,.28,2.72-1.7,5.15-4.42,5.43-35.2,3.61-42.61,35.07-42.68,35.39-.51,2.31-2.56,3.87-4.83,3.87Z"/><path class="cls-11" d="M376.18,142.57c-2.26,0-4.3-1.56-4.82-3.86-.3-1.31-7.7-31.82-42.68-35.4-2.72-.28-4.7-2.71-4.42-5.43,.28-2.72,2.72-4.7,5.43-4.42,42.22,4.33,51.25,42.7,51.33,43.08,.59,2.67-1.09,5.31-3.75,5.91-.36,.08-.72,.12-1.08,.12Z"/></g></g><path class="cls-6" d="M556.49,262.02c-4.78,1.24-4.44,6.06-1.55,20.15,2.88,14.1-7.88,21.47-7.88,21.47,14.9-24.83-6.34-44.41-11.23-40.85-4.31,3.15-2.38,7.85,4.51,19.86,6.89,12.01-1.77,20.29-1.77,20.29,1.61-10.49-.24-21.61-9.45-24.46-6.54-2.01-8.57,2.52-8.74,5.77-2.51-9.58-30.12-13.86-23.02,13.15,3.81,14.47,10.78,21.38,17,24.68-.68,5.4-2.68,16.94-8.2,28.69-9.54,20.29-24.9,31.82-45.69,34.31-40.37,4.83-64.06-23.46-72.54-36.16l11.45-6.61c1.47-.85,2.46-2.33,2.7-4.02,.22-1.67-.33-3.37-1.51-4.58l-8.5-8.74c5.67-.11,11.85-.77,18.59-2.14,16.75-3.4,38.8-12.26,48.67-35.05,4.12-9.53,4.68-18.32,4.63-22.95,17.25-8.26,26.52-22.85,26.89-42.39,.22-11.47-2.73-21.49-4.25-25.87,1.82-3.09,3.24-6.89,4.02-11.56,4.23-25.43-8.93-41.87-9.49-42.55-.21-.25-.45-.48-.69-.67,.21-1,.4-2,.58-3.04,3.33-20.37-3.19-48.8-32.15-63.15-3.2-19.11-16.96-32.73-39.94-39.49-14.14-4.16-27.64-4.51-32.61-4.5-1.04-1-2.09-2.06-3.18-3.16-4.95-5-10.53-10.62-18.2-14.97-7.68-4.37-17.48-7.48-30.91-7.48-9.87,0-18.82,6.46-25.16,18.21-1.25,2.3-2.38,4.82-3.37,7.49V435.34h39.97l-34.43,4.19s-5.59,33.63,0,33.63,10.71-23.39,10.71-23.39c0,0,116.16-9.22,107-20.93-4.85-6.19-27.33-7.83-47.46-8.01l-9.22-56.99,10.6-6.11c3.65,5.61,9.79,13.85,18.58,21.77,17.33,15.64,37.94,23.73,60.12,23.73,3.69,0,7.42-.22,11.19-.68,27.04-3.23,47.7-18.74,59.79-44.86,6.3-13.65,8.64-26.74,9.48-33.36,53.04-8.45,32.06-64.24,24.66-62.31Zm-41.3,47.23c-4.96-1.13-9.93-19.71-2.88-18.91,7.05,.8,7.83-2.53,7.83-2.53,.22-.53,.34-1.03,.41-1.55,1.65,6.27,5.37,2,8.42,9.69,4.99,12.62-8.81,14.42-13.78,13.3Z"/></g><g class="cls-8"><path class="cls-2" d="M55.5,88.28c0,10.99-4.87,15.86-15.86,15.86,10.99,0,15.86,4.87,15.86,15.86,0-10.99,4.87-15.86,15.86-15.86-10.98,0-15.86-4.87-15.86-15.86Z"/><path class="cls-2" d="M22.12,127.4c0,15.33-6.8,22.12-22.12,22.12,15.33,0,22.12,6.79,22.12,22.12,0-15.33,6.79-22.12,22.12-22.12-15.33,0-22.12-6.8-22.12-22.12Z"/><path class="cls-2" d="M67.31,133.73c0,1.86-1.51,3.36-3.36,3.36s-3.36-1.51-3.36-3.36,1.51-3.36,3.36-3.36,3.36,1.51,3.36,3.36Z"/><path class="cls-2" d="M17.46,106.16c0,3.03-2.46,5.49-5.49,5.49s-5.49-2.46-5.49-5.49,2.46-5.49,5.49-5.49,5.49,2.46,5.49,5.49Z"/><path class="cls-2" d="M54.11,163.77c0,1.79-1.45,3.24-3.24,3.24s-3.23-1.45-3.23-3.24,1.45-3.23,3.23-3.23,3.24,1.45,3.24,3.23Z"/></g><g class="cls-8"><path class="cls-2" d="M547.03,142.57c0,10.99,4.87,15.86,15.86,15.86-10.99,0-15.86,4.87-15.86,15.86,0-10.99-4.87-15.86-15.86-15.86,10.98,0,15.86-4.87,15.86-15.86Z"/><path class="cls-2" d="M580.41,181.69c0,15.32,6.8,22.12,22.12,22.12-15.33,0-22.12,6.79-22.12,22.12,0-15.33-6.79-22.12-22.12-22.12,15.33,0,22.12-6.8,22.12-22.12Z"/><path class="cls-2" d="M535.22,188.01c0,1.86,1.51,3.36,3.36,3.36s3.36-1.51,3.36-3.36-1.51-3.36-3.36-3.36-3.36,1.51-3.36,3.36Z"/><path class="cls-2" d="M585.06,160.45c0,3.03,2.46,5.49,5.49,5.49s5.49-2.46,5.49-5.49-2.46-5.49-5.49-5.49-5.49,2.46-5.49,5.49Z"/><path class="cls-2" d="M548.42,218.06c0,1.79,1.45,3.24,3.24,3.24s3.23-1.45,3.23-3.24-1.45-3.23-3.23-3.23-3.24,1.45-3.24,3.23Z"/></g></g></g></g></g></svg>