<?xml version="1.0" encoding="utf-8"?>
<!-- Generator: Adobe Illustrator 26.4.1, SVG Export Plug-In . SVG Version: 6.00 Build 0)  -->
<svg version="1.1" id="Layer_2_00000087385349127661576470000015480069422639251085_"
	 xmlns="http://www.w3.org/2000/svg" xmlns:xlink="http://www.w3.org/1999/xlink" x="0px" y="0px" viewBox="0 0 304 185.7"
	 style="enable-background:new 0 0 304 185.7;" xml:space="preserve">
<g id="Layer_1-2">
	<path d="M279,109.5h4.5v-6.9C282.7,104.9,281,107.3,279,109.5"/>
	<path d="M137.3,120.3c-3.3-4.3-7.4-8.1-12.3-10.8c-2.5-1.4-5.2-2.6-8.1-3.4l25.1-23.3V59.9H64.7v22h46.2L81,109.5l0,0l10.5,18.4
		c2.9-1.7,6.2-2.7,9.6-2.7c5.2,0,9.9,1.5,13.7,5.3c3.8,3.8,5.7,8.9,5.7,14.1s-2.1,9.9-5.7,13.6c-3.6,3.6-8.6,5.7-13.7,5.7
		s-10.1-2.1-13.7-5.7c-2.4-2.4-3.9-5.3-4.8-8.6l-22.7,6c2.1,7.2,6,13.7,11.3,18.7c8.1,7.6,19.1,11.8,29.9,11.5
		c10.8,0.3,21.8-3.8,29.9-11.3s12.9-18.7,13.2-29.9C144.5,135.9,141.9,127.5,137.3,120.3"/>
	<path d="M215,48.3V22.6H43.2V0L19.9,22.6H0v25.7h19.9v30.8c0,10.1,0.5,19.1,4.5,26.4c0.8,1.4,1.7,2.7,2.6,3.9
		c3.8,4.6,9.2,7.6,15.9,9.5c6.9,1.9,19.7,1.5,27.1-0.5V98.3c-5,0.7-10.6,0.9-15.1,0.5c-3.6-0.3-7.4-2.4-9.4-5.7
		c-2.1-3.3-2.2-8.6-2.2-15.8V48.3L215,48.3L215,48.3z"/>
	<path d="M299,41.6c-7.5-12.7-21.3-18.4-38.3-18.4c-15.3,0-28,5-36.4,16.8c-0.7,0.9-1.4,2.1-1.9,2.8l21.3,10.1
		c0.5-0.9,1.2-1.7,1.9-2.4c3.6-4.3,8.6-5.7,14.6-5.7c4.8-0.2,9.4,0.7,13.2,2.9c3.4,1.9,6,5,6.9,8.6l-14.9,2.1
		c-13.2,2.1-20.4,2.2-30.7,7.7c-8.8,5.2-14.9,14.9-14.9,24.9c0,7.7,2.2,12.2,6.5,18.4c0.2,0.3,0.4,0.6,0.7,1
		c5,5.8,14.4,10.3,23.5,10.3c7,0,15.1-1.7,21.6-5.7c2.1-1.3,4.7-3.3,6.9-5.6c2-2.1,3.7-4.5,4.5-6.9v15.8H304V60.2
		C304,54.5,302.6,47.6,299,41.6 M279.6,83.2c-2.9,11.2-14.8,16-24.5,16.3c-7.6,0.3-12.5-4.5-12.2-9.9c0.3-7.4,10.8-9.3,20.8-11.2
		l17.2-3.3C280.8,76,280.6,79.4,279.6,83.2"/>
	<rect x="283.6" y="127.6" width="20.4" height="18.1"/>
	<path d="M176.3,109.5v-6.9c0-6.9,1.9-13,6-17.5c3.3-3.4,8.1-5.8,14.8-6.3s13,0.5,17.9,2.4V59.5c-5.1-2.1-10.5-2.9-15.4-2.6
		c-5.5,0.3-11.2,1.7-16.1,4.8c-4.3,2.6-7.6,6.2-9.9,10.3V59.3h-20.6V120h23.5L176.3,109.5L176.3,109.5z"/>
</g>
</svg>
